<?xml version="1.0" encoding="UTF-8" standalone="no"?>
<!DOCTYPE svg PUBLIC "-//W3C//DTD SVG 1.1//EN"
 "http://www.w3.org/Graphics/SVG/1.1/DTD/svg11.dtd">
<!-- Generated by graphviz version 13.1.0 (20250701.0955)
 -->
<!-- Title: src/driver_ads1115.h Pages: 1 -->
<svg width="1020pt" height="232pt"
 viewBox="0.00 0.00 1020.00 232.00" xmlns="http://www.w3.org/2000/svg" xmlns:xlink="http://www.w3.org/1999/xlink">
<g id="graph0" class="graph" transform="scale(1 1) rotate(0) translate(4 228)">
<title>src/driver_ads1115.h</title>
<!-- Node1 -->
<g id="Node000001" class="node">
<title>Node1</title>
<g id="a_Node000001"><a xlink:title="driver ads1115 header file">
<polygon fill="#999999" stroke="#666666" points="656.75,-224 551.5,-224 551.5,-204 656.75,-204 656.75,-224"/>
<text xml:space="preserve" text-anchor="middle" x="604.12" y="-210.5" font-family="Helvetica,sans-Serif" font-size="10.00">src/driver_ads1115.h</text>
</a>
</g>
</g>
<!-- Node2 -->
<g id="Node000002" class="node">
<title>Node2</title>
<g id="a_Node000002"><a xlink:href="driver__ads1115__interface_8h.html" target="_top" xlink:title="driver ads1115 interface header file">
<polygon fill="white" stroke="#666666" points="599.62,-168 478.62,-168 478.62,-136 599.62,-136 599.62,-168"/>
<text xml:space="preserve" text-anchor="start" x="486.62" y="-154.5" font-family="Helvetica,sans-Serif" font-size="10.00">interface/driver_ads1115</text>
<text xml:space="preserve" text-anchor="middle" x="539.12" y="-142.5" font-family="Helvetica,sans-Serif" font-size="10.00">_interface.h</text>
</a>
</g>
</g>
<!-- Node1&#45;&gt;Node2 -->
<g id="edge1_Node000001_Node000002" class="edge">
<title>Node1&#45;&gt;Node2</title>
<g id="a_edge1_Node000001_Node000002"><a xlink:title=" ">
<path fill="none" stroke="#63b8ff" d="M585.68,-195.98C576.27,-187.29 564.92,-176.81 555.78,-168.37"/>
<polygon fill="#63b8ff" stroke="#63b8ff" points="583.13,-198.39 592.86,-202.6 587.88,-193.24 583.13,-198.39"/>
</a>
</g>
</g>
<!-- Node18 -->
<g id="Node000018" class="node">
<title>Node18</title>
<g id="a_Node000018"><a xlink:href="driver__ads1115_8c.html" target="_top" xlink:title="driver ads1115 source file">
<polygon fill="white" stroke="#666666" points="722.75,-162 617.5,-162 617.5,-142 722.75,-142 722.75,-162"/>
<text xml:space="preserve" text-anchor="middle" x="670.12" y="-148.5" font-family="Helvetica,sans-Serif" font-size="10.00">src/driver_ads1115.c</text>
</a>
</g>
</g>
<!-- Node1&#45;&gt;Node18 -->
<g id="edge17_Node000001_Node000018" class="edge">
<title>Node1&#45;&gt;Node18</title>
<g id="a_edge17_Node000001_Node000018"><a xlink:title=" ">
<path fill="none" stroke="#63b8ff" d="M622.93,-195.9C635.03,-184.91 650.27,-171.05 660.1,-162.11"/>
<polygon fill="#63b8ff" stroke="#63b8ff" points="620.6,-193.29 615.56,-202.61 625.31,-198.47 620.6,-193.29"/>
</a>
</g>
</g>
<!-- Node3 -->
<g id="Node000003" class="node">
<title>Node3</title>
<g id="a_Node000003"><a xlink:href="driver__ads1115__basic_8h.html" target="_top" xlink:title="driver ads1115 basic header file">
<polygon fill="white" stroke="#666666" points="120.25,-100 0,-100 0,-68 120.25,-68 120.25,-100"/>
<text xml:space="preserve" text-anchor="start" x="8" y="-86.5" font-family="Helvetica,sans-Serif" font-size="10.00">example/driver_ads1115</text>
<text xml:space="preserve" text-anchor="middle" x="60.12" y="-74.5" font-family="Helvetica,sans-Serif" font-size="10.00">_basic.h</text>
</a>
</g>
</g>
<!-- Node2&#45;&gt;Node3 -->
<g id="edge2_Node000002_Node000003" class="edge">
<title>Node2&#45;&gt;Node3</title>
<g id="a_edge2_Node000002_Node000003"><a xlink:title=" ">
<path fill="none" stroke="#63b8ff" d="M467.23,-144.04C385.14,-135.64 246.97,-120.1 129.12,-100 126.35,-99.53 123.51,-99.02 120.65,-98.48"/>
<polygon fill="#63b8ff" stroke="#63b8ff" points="466.63,-147.5 476.93,-145.03 467.34,-140.54 466.63,-147.5"/>
</a>
</g>
</g>
<!-- Node5 -->
<g id="Node000005" class="node">
<title>Node5</title>
<g id="a_Node000005"><a xlink:href="driver__ads1115__interrupt_8h.html" target="_top" xlink:title="driver ads1115 interrupt header file">
<polygon fill="white" stroke="#666666" points="258.25,-100 138,-100 138,-68 258.25,-68 258.25,-100"/>
<text xml:space="preserve" text-anchor="start" x="146" y="-86.5" font-family="Helvetica,sans-Serif" font-size="10.00">example/driver_ads1115</text>
<text xml:space="preserve" text-anchor="middle" x="198.12" y="-74.5" font-family="Helvetica,sans-Serif" font-size="10.00">_interrupt.h</text>
</a>
</g>
</g>
<!-- Node2&#45;&gt;Node5 -->
<g id="edge4_Node000002_Node000005" class="edge">
<title>Node2&#45;&gt;Node5</title>
<g id="a_edge4_Node000002_Node000005"><a xlink:title=" ">
<path fill="none" stroke="#63b8ff" d="M467.25,-138.1C412.35,-128.11 334.86,-113.71 267.12,-100 264.36,-99.44 261.54,-98.86 258.69,-98.27"/>
<polygon fill="#63b8ff" stroke="#63b8ff" points="466.31,-141.49 476.77,-139.83 467.56,-134.6 466.31,-141.49"/>
</a>
</g>
</g>
<!-- Node7 -->
<g id="Node000007" class="node">
<title>Node7</title>
<g id="a_Node000007"><a xlink:href="driver__ads1115__shot_8h.html" target="_top" xlink:title="driver ads1115 shot header file">
<polygon fill="white" stroke="#666666" points="396.25,-100 276,-100 276,-68 396.25,-68 396.25,-100"/>
<text xml:space="preserve" text-anchor="start" x="284" y="-86.5" font-family="Helvetica,sans-Serif" font-size="10.00">example/driver_ads1115</text>
<text xml:space="preserve" text-anchor="middle" x="336.12" y="-74.5" font-family="Helvetica,sans-Serif" font-size="10.00">_shot.h</text>
</a>
</g>
</g>
<!-- Node2&#45;&gt;Node7 -->
<g id="edge6_Node000002_Node000007" class="edge">
<title>Node2&#45;&gt;Node7</title>
<g id="a_edge6_Node000002_Node000007"><a xlink:title=" ">
<path fill="none" stroke="#63b8ff" d="M480.94,-132.08C450.15,-122.07 412.82,-109.94 383.77,-100.49"/>
<polygon fill="#63b8ff" stroke="#63b8ff" points="479.5,-135.29 490.09,-135.06 481.66,-128.64 479.5,-135.29"/>
</a>
</g>
</g>
<!-- Node9 -->
<g id="Node000009" class="node">
<title>Node9</title>
<g id="a_Node000009"><a xlink:href="driver__ads1115__interface__template_8c.html" target="_top" xlink:title="driver ads1115 interface template source file">
<polygon fill="white" stroke="#666666" points="535.62,-100 414.62,-100 414.62,-68 535.62,-68 535.62,-100"/>
<text xml:space="preserve" text-anchor="start" x="422.62" y="-86.5" font-family="Helvetica,sans-Serif" font-size="10.00">interface/driver_ads1115</text>
<text xml:space="preserve" text-anchor="middle" x="475.12" y="-74.5" font-family="Helvetica,sans-Serif" font-size="10.00">_interface_template.c</text>
</a>
</g>
</g>
<!-- Node2&#45;&gt;Node9 -->
<g id="edge8_Node000002_Node000009" class="edge">
<title>Node2&#45;&gt;Node9</title>
<g id="a_edge8_Node000002_Node000009"><a xlink:title=" ">
<path fill="none" stroke="#63b8ff" d="M516.27,-127.43C507.49,-118.38 497.71,-108.29 489.89,-100.22"/>
<polygon fill="#63b8ff" stroke="#63b8ff" points="513.75,-129.86 523.23,-134.61 518.78,-124.99 513.75,-129.86"/>
</a>
</g>
</g>
<!-- Node10 -->
<g id="Node000010" class="node">
<title>Node10</title>
<g id="a_Node000010"><a xlink:href="driver__ads1115__compare__test_8h.html" target="_top" xlink:title="driver ads1115 compare test header file">
<polygon fill="white" stroke="#666666" points="654.12,-100 554.12,-100 554.12,-68 654.12,-68 654.12,-100"/>
<text xml:space="preserve" text-anchor="start" x="562.12" y="-86.5" font-family="Helvetica,sans-Serif" font-size="10.00">test/driver_ads1115</text>
<text xml:space="preserve" text-anchor="middle" x="604.12" y="-74.5" font-family="Helvetica,sans-Serif" font-size="10.00">_compare_test.h</text>
</a>
</g>
</g>
<!-- Node2&#45;&gt;Node10 -->
<g id="edge9_Node000002_Node000010" class="edge">
<title>Node2&#45;&gt;Node10</title>
<g id="a_edge9_Node000002_Node000010"><a xlink:title=" ">
<path fill="none" stroke="#63b8ff" d="M562.06,-127.71C571.05,-118.59 581.11,-108.37 589.13,-100.22"/>
<polygon fill="#63b8ff" stroke="#63b8ff" points="559.79,-125.03 555.26,-134.61 564.77,-129.95 559.79,-125.03"/>
</a>
</g>
</g>
<!-- Node12 -->
<g id="Node000012" class="node">
<title>Node12</title>
<g id="a_Node000012"><a xlink:href="driver__ads1115__mutichannel__test_8h.html" target="_top" xlink:title="driver ads1115 mutichannel test header file">
<polygon fill="white" stroke="#666666" points="776,-100 672.25,-100 672.25,-68 776,-68 776,-100"/>
<text xml:space="preserve" text-anchor="start" x="680.25" y="-86.5" font-family="Helvetica,sans-Serif" font-size="10.00">test/driver_ads1115</text>
<text xml:space="preserve" text-anchor="middle" x="724.12" y="-74.5" font-family="Helvetica,sans-Serif" font-size="10.00">_mutichannel_test.h</text>
</a>
</g>
</g>
<!-- Node2&#45;&gt;Node12 -->
<g id="edge11_Node000002_Node000012" class="edge">
<title>Node2&#45;&gt;Node12</title>
<g id="a_edge11_Node000002_Node000012"><a xlink:title=" ">
<path fill="none" stroke="#63b8ff" d="M593.26,-131.69C621.1,-121.76 654.58,-109.81 680.7,-100.49"/>
<polygon fill="#63b8ff" stroke="#63b8ff" points="592.17,-128.36 583.92,-135.02 594.52,-134.95 592.17,-128.36"/>
</a>
</g>
</g>
<!-- Node14 -->
<g id="Node000014" class="node">
<title>Node14</title>
<g id="a_Node000014"><a xlink:href="driver__ads1115__read__test_8h.html" target="_top" xlink:title="driver ads1115 read test header file">
<polygon fill="white" stroke="#666666" points="894.12,-100 794.12,-100 794.12,-68 894.12,-68 894.12,-100"/>
<text xml:space="preserve" text-anchor="start" x="802.12" y="-86.5" font-family="Helvetica,sans-Serif" font-size="10.00">test/driver_ads1115</text>
<text xml:space="preserve" text-anchor="middle" x="844.12" y="-74.5" font-family="Helvetica,sans-Serif" font-size="10.00">_read_test.h</text>
</a>
</g>
</g>
<!-- Node2&#45;&gt;Node14 -->
<g id="edge13_Node000002_Node000014" class="edge">
<title>Node2&#45;&gt;Node14</title>
<g id="a_edge13_Node000002_Node000014"><a xlink:title=" ">
<path fill="none" stroke="#63b8ff" d="M610.88,-135.44C688.52,-119.31 710.23,-117.13 785.12,-100 787.91,-99.36 790.76,-98.7 793.63,-98.01"/>
<polygon fill="#63b8ff" stroke="#63b8ff" points="610.62,-131.92 601.55,-137.4 612.05,-138.77 610.62,-131.92"/>
</a>
</g>
</g>
<!-- Node16 -->
<g id="Node000016" class="node">
<title>Node16</title>
<g id="a_Node000016"><a xlink:href="driver__ads1115__register__test_8h.html" target="_top" xlink:title="driver ads1115 register test header file">
<polygon fill="white" stroke="#666666" points="1012.12,-100 912.12,-100 912.12,-68 1012.12,-68 1012.12,-100"/>
<text xml:space="preserve" text-anchor="start" x="920.12" y="-86.5" font-family="Helvetica,sans-Serif" font-size="10.00">test/driver_ads1115</text>
<text xml:space="preserve" text-anchor="middle" x="962.12" y="-74.5" font-family="Helvetica,sans-Serif" font-size="10.00">_register_test.h</text>
</a>
</g>
</g>
<!-- Node2&#45;&gt;Node16 -->
<g id="edge15_Node000002_Node000016" class="edge">
<title>Node2&#45;&gt;Node16</title>
<g id="a_edge15_Node000002_Node000016"><a xlink:title=" ">
<path fill="none" stroke="#63b8ff" d="M611.14,-135.59C740.34,-114.49 776.85,-123.66 903.12,-100 905.93,-99.47 908.8,-98.89 911.69,-98.27"/>
<polygon fill="#63b8ff" stroke="#63b8ff" points="610.8,-132.1 601.51,-137.19 611.95,-139 610.8,-132.1"/>
</a>
</g>
</g>
<!-- Node4 -->
<g id="Node000004" class="node">
<title>Node4</title>
<g id="a_Node000004"><a xlink:href="driver__ads1115__basic_8c.html" target="_top" xlink:title="driver ads1115 basic source file">
<polygon fill="white" stroke="#666666" points="120.25,-32 0,-32 0,0 120.25,0 120.25,-32"/>
<text xml:space="preserve" text-anchor="start" x="8" y="-18.5" font-family="Helvetica,sans-Serif" font-size="10.00">example/driver_ads1115</text>
<text xml:space="preserve" text-anchor="middle" x="60.12" y="-6.5" font-family="Helvetica,sans-Serif" font-size="10.00">_basic.c</text>
</a>
</g>
</g>
<!-- Node3&#45;&gt;Node4 -->
<g id="edge3_Node000003_Node000004" class="edge">
<title>Node3&#45;&gt;Node4</title>
<g id="a_edge3_Node000003_Node000004"><a xlink:title=" ">
<path fill="none" stroke="#63b8ff" d="M60.12,-56.31C60.12,-48.12 60.12,-39.38 60.12,-32.22"/>
<polygon fill="#63b8ff" stroke="#63b8ff" points="56.63,-56.18 60.13,-66.18 63.63,-56.18 56.63,-56.18"/>
</a>
</g>
</g>
<!-- Node6 -->
<g id="Node000006" class="node">
<title>Node6</title>
<g id="a_Node000006"><a xlink:href="driver__ads1115__interrupt_8c.html" target="_top" xlink:title="driver ads1115 interrupt source file">
<polygon fill="white" stroke="#666666" points="258.25,-32 138,-32 138,0 258.25,0 258.25,-32"/>
<text xml:space="preserve" text-anchor="start" x="146" y="-18.5" font-family="Helvetica,sans-Serif" font-size="10.00">example/driver_ads1115</text>
<text xml:space="preserve" text-anchor="middle" x="198.12" y="-6.5" font-family="Helvetica,sans-Serif" font-size="10.00">_interrupt.c</text>
</a>
</g>
</g>
<!-- Node5&#45;&gt;Node6 -->
<g id="edge5_Node000005_Node000006" class="edge">
<title>Node5&#45;&gt;Node6</title>
<g id="a_edge5_Node000005_Node000006"><a xlink:title=" ">
<path fill="none" stroke="#63b8ff" d="M198.12,-56.31C198.12,-48.12 198.12,-39.38 198.12,-32.22"/>
<polygon fill="#63b8ff" stroke="#63b8ff" points="194.63,-56.18 198.13,-66.18 201.63,-56.18 194.63,-56.18"/>
</a>
</g>
</g>
<!-- Node8 -->
<g id="Node000008" class="node">
<title>Node8</title>
<g id="a_Node000008"><a xlink:href="driver__ads1115__shot_8c.html" target="_top" xlink:title="driver ads1115 shot source file">
<polygon fill="white" stroke="#666666" points="396.25,-32 276,-32 276,0 396.25,0 396.25,-32"/>
<text xml:space="preserve" text-anchor="start" x="284" y="-18.5" font-family="Helvetica,sans-Serif" font-size="10.00">example/driver_ads1115</text>
<text xml:space="preserve" text-anchor="middle" x="336.12" y="-6.5" font-family="Helvetica,sans-Serif" font-size="10.00">_shot.c</text>
</a>
</g>
</g>
<!-- Node7&#45;&gt;Node8 -->
<g id="edge7_Node000007_Node000008" class="edge">
<title>Node7&#45;&gt;Node8</title>
<g id="a_edge7_Node000007_Node000008"><a xlink:title=" ">
<path fill="none" stroke="#63b8ff" d="M336.12,-56.31C336.12,-48.12 336.12,-39.38 336.12,-32.22"/>
<polygon fill="#63b8ff" stroke="#63b8ff" points="332.63,-56.18 336.13,-66.18 339.63,-56.18 332.63,-56.18"/>
</a>
</g>
</g>
<!-- Node11 -->
<g id="Node000011" class="node">
<title>Node11</title>
<g id="a_Node000011"><a xlink:href="driver__ads1115__compare__test_8c.html" target="_top" xlink:title="driver ads1115 compare test source file">
<polygon fill="white" stroke="#666666" points="654.12,-32 554.12,-32 554.12,0 654.12,0 654.12,-32"/>
<text xml:space="preserve" text-anchor="start" x="562.12" y="-18.5" font-family="Helvetica,sans-Serif" font-size="10.00">test/driver_ads1115</text>
<text xml:space="preserve" text-anchor="middle" x="604.12" y="-6.5" font-family="Helvetica,sans-Serif" font-size="10.00">_compare_test.c</text>
</a>
</g>
</g>
<!-- Node10&#45;&gt;Node11 -->
<g id="edge10_Node000010_Node000011" class="edge">
<title>Node10&#45;&gt;Node11</title>
<g id="a_edge10_Node000010_Node000011"><a xlink:title=" ">
<path fill="none" stroke="#63b8ff" d="M604.12,-56.31C604.12,-48.12 604.12,-39.38 604.12,-32.22"/>
<polygon fill="#63b8ff" stroke="#63b8ff" points="600.63,-56.18 604.13,-66.18 607.63,-56.18 600.63,-56.18"/>
</a>
</g>
</g>
<!-- Node13 -->
<g id="Node000013" class="node">
<title>Node13</title>
<g id="a_Node000013"><a xlink:href="driver__ads1115__mutichannel__test_8c.html" target="_top" xlink:title="driver ads1115 mutichannel test source file">
<polygon fill="white" stroke="#666666" points="776,-32 672.25,-32 672.25,0 776,0 776,-32"/>
<text xml:space="preserve" text-anchor="start" x="680.25" y="-18.5" font-family="Helvetica,sans-Serif" font-size="10.00">test/driver_ads1115</text>
<text xml:space="preserve" text-anchor="middle" x="724.12" y="-6.5" font-family="Helvetica,sans-Serif" font-size="10.00">_mutichannel_test.c</text>
</a>
</g>
</g>
<!-- Node12&#45;&gt;Node13 -->
<g id="edge12_Node000012_Node000013" class="edge">
<title>Node12&#45;&gt;Node13</title>
<g id="a_edge12_Node000012_Node000013"><a xlink:title=" ">
<path fill="none" stroke="#63b8ff" d="M724.12,-56.31C724.12,-48.12 724.12,-39.38 724.12,-32.22"/>
<polygon fill="#63b8ff" stroke="#63b8ff" points="720.63,-56.18 724.13,-66.18 727.63,-56.18 720.63,-56.18"/>
</a>
</g>
</g>
<!-- Node15 -->
<g id="Node000015" class="node">
<title>Node15</title>
<g id="a_Node000015"><a xlink:href="driver__ads1115__read__test_8c.html" target="_top" xlink:title="driver ads1115 read test source file">
<polygon fill="white" stroke="#666666" points="894.12,-32 794.12,-32 794.12,0 894.12,0 894.12,-32"/>
<text xml:space="preserve" text-anchor="start" x="802.12" y="-18.5" font-family="Helvetica,sans-Serif" font-size="10.00">test/driver_ads1115</text>
<text xml:space="preserve" text-anchor="middle" x="844.12" y="-6.5" font-family="Helvetica,sans-Serif" font-size="10.00">_read_test.c</text>
</a>
</g>
</g>
<!-- Node14&#45;&gt;Node15 -->
<g id="edge14_Node000014_Node000015" class="edge">
<title>Node14&#45;&gt;Node15</title>
<g id="a_edge14_Node000014_Node000015"><a xlink:title=" ">
<path fill="none" stroke="#63b8ff" d="M844.12,-56.31C844.12,-48.12 844.12,-39.38 844.12,-32.22"/>
<polygon fill="#63b8ff" stroke="#63b8ff" points="840.63,-56.18 844.13,-66.18 847.63,-56.18 840.63,-56.18"/>
</a>
</g>
</g>
<!-- Node17 -->
<g id="Node000017" class="node">
<title>Node17</title>
<g id="a_Node000017"><a xlink:href="driver__ads1115__register__test_8c.html" target="_top" xlink:title="driver ads1115 register test source file">
<polygon fill="white" stroke="#666666" points="1012.12,-32 912.12,-32 912.12,0 1012.12,0 1012.12,-32"/>
<text xml:space="preserve" text-anchor="start" x="920.12" y="-18.5" font-family="Helvetica,sans-Serif" font-size="10.00">test/driver_ads1115</text>
<text xml:space="preserve" text-anchor="middle" x="962.12" y="-6.5" font-family="Helvetica,sans-Serif" font-size="10.00">_register_test.c</text>
</a>
</g>
</g>
<!-- Node16&#45;&gt;Node17 -->
<g id="edge16_Node000016_Node000017" class="edge">
<title>Node16&#45;&gt;Node17</title>
<g id="a_edge16_Node000016_Node000017"><a xlink:title=" ">
<path fill="none" stroke="#63b8ff" d="M962.12,-56.31C962.12,-48.12 962.12,-39.38 962.12,-32.22"/>
<polygon fill="#63b8ff" stroke="#63b8ff" points="958.63,-56.18 962.13,-66.18 965.63,-56.18 958.63,-56.18"/>
</a>
</g>
</g>
</g>
</svg>
