<?xml version="1.0" encoding="UTF-8" standalone="no"?>
<!DOCTYPE svg PUBLIC "-//W3C//DTD SVG 1.1//EN"
 "http://www.w3.org/Graphics/SVG/1.1/DTD/svg11.dtd">
<!-- Generated by graphviz version 13.1.0 (20250701.0955)
 -->
<!-- Title: ads1115_interrupt_deinit Pages: 1 -->
<svg width="316pt" height="66pt"
 viewBox="0.00 0.00 316.00 66.00" xmlns="http://www.w3.org/2000/svg" xmlns:xlink="http://www.w3.org/1999/xlink">
<g id="graph0" class="graph" transform="scale(1 1) rotate(0) translate(4 62)">
<title>ads1115_interrupt_deinit</title>
<!-- Node1 -->
<g id="Node000001" class="node">
<title>Node1</title>
<g id="a_Node000001"><a xlink:title="interrupt example deinit">
<polygon fill="#999999" stroke="#666666" points="120.25,-39 0,-39 0,-19 120.25,-19 120.25,-39"/>
<text xml:space="preserve" text-anchor="middle" x="60.12" y="-25.5" font-family="Helvetica,sans-Serif" font-size="10.00">ads1115_interrupt_deinit</text>
</a>
</g>
</g>
<!-- Node2 -->
<g id="Node000002" class="node">
<title>Node2</title>
<g id="a_Node000002"><a xlink:href="group__ads1115__base__driver.html#ga53af60470c9978fcb06cb75ba893c39b" target="_top" xlink:title="close the chip">
<polygon fill="white" stroke="#666666" points="272,-58 192.25,-58 192.25,-38 272,-38 272,-58"/>
<text xml:space="preserve" text-anchor="middle" x="232.12" y="-44.5" font-family="Helvetica,sans-Serif" font-size="10.00">ads1115_deinit</text>
</a>
</g>
</g>
<!-- Node1&#45;&gt;Node2 -->
<g id="edge1_Node000001_Node000002" class="edge">
<title>Node1&#45;&gt;Node2</title>
<g id="a_edge1_Node000001_Node000002"><a xlink:title=" ">
<path fill="none" stroke="#63b8ff" d="M120.58,-35.65C140.17,-37.83 161.75,-40.25 180.6,-42.35"/>
<polygon fill="#63b8ff" stroke="#63b8ff" points="180.12,-45.82 190.44,-43.45 180.89,-38.86 180.12,-45.82"/>
</a>
</g>
</g>
<!-- Node3 -->
<g id="Node000003" class="node">
<title>Node3</title>
<g id="a_Node000003"><a xlink:href="group__ads1115__base__driver.html#gacc928e999b87a77dcb45865759efab41" target="_top" xlink:title="stop the chip reading">
<polygon fill="white" stroke="#666666" points="308,-20 156.25,-20 156.25,0 308,0 308,-20"/>
<text xml:space="preserve" text-anchor="middle" x="232.12" y="-6.5" font-family="Helvetica,sans-Serif" font-size="10.00">ads1115_stop_continuous_read</text>
</a>
</g>
</g>
<!-- Node1&#45;&gt;Node3 -->
<g id="edge2_Node000001_Node000003" class="edge">
<title>Node1&#45;&gt;Node3</title>
<g id="a_edge2_Node000001_Node000003"><a xlink:title=" ">
<path fill="none" stroke="#63b8ff" d="M120.58,-22.35C128.33,-21.49 136.38,-20.59 144.46,-19.69"/>
<polygon fill="#63b8ff" stroke="#63b8ff" points="144.81,-23.17 154.36,-18.58 144.03,-16.21 144.81,-23.17"/>
</a>
</g>
</g>
</g>
</svg>
