<?xml version="1.0" encoding="UTF-8" standalone="no"?>
<!DOCTYPE svg PUBLIC "-//W3C//DTD SVG 1.1//EN"
 "http://www.w3.org/Graphics/SVG/1.1/DTD/svg11.dtd">
<!-- Generated by graphviz version 13.1.0 (20250701.0955)
 -->
<!-- Title: ads1115_basic_deinit Pages: 1 -->
<svg width="304pt" height="66pt"
 viewBox="0.00 0.00 304.00 66.00" xmlns="http://www.w3.org/2000/svg" xmlns:xlink="http://www.w3.org/1999/xlink">
<g id="graph0" class="graph" transform="scale(1 1) rotate(0) translate(4 62)">
<title>ads1115_basic_deinit</title>
<!-- Node1 -->
<g id="Node000001" class="node">
<title>Node1</title>
<g id="a_Node000001"><a xlink:title="basic example deinit">
<polygon fill="#999999" stroke="#666666" points="108.25,-39 0,-39 0,-19 108.25,-19 108.25,-39"/>
<text xml:space="preserve" text-anchor="middle" x="54.12" y="-25.5" font-family="Helvetica,sans-Serif" font-size="10.00">ads1115_basic_deinit</text>
</a>
</g>
</g>
<!-- Node2 -->
<g id="Node000002" class="node">
<title>Node2</title>
<g id="a_Node000002"><a xlink:href="group__ads1115__base__driver.html#ga53af60470c9978fcb06cb75ba893c39b" target="_top" xlink:title="close the chip">
<polygon fill="white" stroke="#666666" points="260,-58 180.25,-58 180.25,-38 260,-38 260,-58"/>
<text xml:space="preserve" text-anchor="middle" x="220.12" y="-44.5" font-family="Helvetica,sans-Serif" font-size="10.00">ads1115_deinit</text>
</a>
</g>
</g>
<!-- Node1&#45;&gt;Node2 -->
<g id="edge1_Node000001_Node000002" class="edge">
<title>Node1&#45;&gt;Node2</title>
<g id="a_edge1_Node000001_Node000002"><a xlink:title=" ">
<path fill="none" stroke="#63b8ff" d="M108.37,-35.17C127.75,-37.41 149.58,-39.94 168.7,-42.16"/>
<polygon fill="#63b8ff" stroke="#63b8ff" points="168.07,-45.61 178.41,-43.28 168.88,-38.66 168.07,-45.61"/>
</a>
</g>
</g>
<!-- Node3 -->
<g id="Node000003" class="node">
<title>Node3</title>
<g id="a_Node000003"><a xlink:href="group__ads1115__base__driver.html#gacc928e999b87a77dcb45865759efab41" target="_top" xlink:title="stop the chip reading">
<polygon fill="white" stroke="#666666" points="296,-20 144.25,-20 144.25,0 296,0 296,-20"/>
<text xml:space="preserve" text-anchor="middle" x="220.12" y="-6.5" font-family="Helvetica,sans-Serif" font-size="10.00">ads1115_stop_continuous_read</text>
</a>
</g>
</g>
<!-- Node1&#45;&gt;Node3 -->
<g id="edge2_Node000001_Node000003" class="edge">
<title>Node1&#45;&gt;Node3</title>
<g id="a_edge2_Node000001_Node000003"><a xlink:title=" ">
<path fill="none" stroke="#63b8ff" d="M108.37,-22.83C116.15,-21.93 124.33,-20.98 132.56,-20.03"/>
<polygon fill="#63b8ff" stroke="#63b8ff" points="132.77,-23.53 142.3,-18.9 131.96,-16.57 132.77,-23.53"/>
</a>
</g>
</g>
</g>
</svg>
