<?xml version="1.0" encoding="UTF-8" standalone="no"?>
<!DOCTYPE svg PUBLIC "-//W3C//DTD SVG 1.1//EN"
 "http://www.w3.org/Graphics/SVG/1.1/DTD/svg11.dtd">
<!-- Generated by graphviz version 13.1.0 (20250701.0955)
 -->
<!-- Title: ads1115_basic_init Pages: 1 -->
<svg width="294pt" height="558pt"
 viewBox="0.00 0.00 294.00 558.00" xmlns="http://www.w3.org/2000/svg" xmlns:xlink="http://www.w3.org/1999/xlink">
<g id="graph0" class="graph" transform="scale(1 1) rotate(0) translate(4 554)">
<title>ads1115_basic_init</title>
<!-- Node1 -->
<g id="Node000001" class="node">
<title>Node1</title>
<g id="a_Node000001"><a xlink:title="basic example init">
<polygon fill="#999999" stroke="#666666" points="97.75,-276 0,-276 0,-256 97.75,-256 97.75,-276"/>
<text xml:space="preserve" text-anchor="middle" x="48.88" y="-262.5" font-family="Helvetica,sans-Serif" font-size="10.00">ads1115_basic_init</text>
</a>
</g>
</g>
<!-- Node2 -->
<g id="Node000002" class="node">
<title>Node2</title>
<g id="a_Node000002"><a xlink:href="group__ads1115__base__driver.html#ga53af60470c9978fcb06cb75ba893c39b" target="_top" xlink:title="close the chip">
<polygon fill="white" stroke="#666666" points="249.88,-550 170.12,-550 170.12,-530 249.88,-530 249.88,-550"/>
<text xml:space="preserve" text-anchor="middle" x="210" y="-536.5" font-family="Helvetica,sans-Serif" font-size="10.00">ads1115_deinit</text>
</a>
</g>
</g>
<!-- Node1&#45;&gt;Node2 -->
<g id="edge1_Node000001_Node000002" class="edge">
<title>Node1&#45;&gt;Node2</title>
<g id="a_edge1_Node000001_Node000002"><a xlink:title=" ">
<path fill="none" stroke="#63b8ff" d="M49.95,-276.34C50.82,-314.9 59.25,-451.58 133.75,-521 140.76,-527.54 149.69,-531.91 158.93,-534.81"/>
<polygon fill="#63b8ff" stroke="#63b8ff" points="157.8,-538.13 168.35,-537.21 159.53,-531.35 157.8,-538.13"/>
</a>
</g>
</g>
<!-- Node3 -->
<g id="Node000003" class="node">
<title>Node3</title>
<g id="a_Node000003"><a xlink:href="group__ads1115__base__driver.html#ga2a3811d8c153b4cf4c4aa9ea5321e928" target="_top" xlink:title="initialize the chip">
<polygon fill="white" stroke="#666666" points="244.62,-512 175.38,-512 175.38,-492 244.62,-492 244.62,-512"/>
<text xml:space="preserve" text-anchor="middle" x="210" y="-498.5" font-family="Helvetica,sans-Serif" font-size="10.00">ads1115_init</text>
</a>
</g>
</g>
<!-- Node1&#45;&gt;Node3 -->
<g id="edge2_Node000001_Node000003" class="edge">
<title>Node1&#45;&gt;Node3</title>
<g id="a_edge2_Node000001_Node000003"><a xlink:title=" ">
<path fill="none" stroke="#63b8ff" d="M50.64,-276.49C53.76,-311.5 68.73,-425.44 133.75,-483 142.14,-490.42 153.01,-495.03 163.87,-497.87"/>
<polygon fill="#63b8ff" stroke="#63b8ff" points="163.1,-501.28 173.6,-499.91 164.54,-494.43 163.1,-501.28"/>
</a>
</g>
</g>
<!-- Node4 -->
<g id="Node000004" class="node">
<title>Node4</title>
<g id="a_Node000004"><a xlink:href="group__ads1115__interface__driver.html#ga7a540a82ef71d79205a93d367091cff8" target="_top" xlink:title="interface print format data">
<polygon fill="white" stroke="#666666" points="272.75,-474 147.25,-474 147.25,-442 272.75,-442 272.75,-474"/>
<text xml:space="preserve" text-anchor="start" x="155.25" y="-460.5" font-family="Helvetica,sans-Serif" font-size="10.00">ads1115_interface_debug</text>
<text xml:space="preserve" text-anchor="middle" x="210" y="-448.5" font-family="Helvetica,sans-Serif" font-size="10.00">_print</text>
</a>
</g>
</g>
<!-- Node1&#45;&gt;Node4 -->
<g id="edge3_Node000001_Node000004" class="edge">
<title>Node1&#45;&gt;Node4</title>
<g id="a_edge3_Node000001_Node000004"><a xlink:title=" ">
<path fill="none" stroke="#63b8ff" d="M52.13,-276.33C59.01,-305.4 82.46,-388.64 133.75,-433 134.86,-433.96 136.01,-434.89 137.2,-435.78"/>
<polygon fill="#63b8ff" stroke="#63b8ff" points="135.25,-438.69 145.56,-441.12 139.02,-432.79 135.25,-438.69"/>
</a>
</g>
</g>
<!-- Node5 -->
<g id="Node000005" class="node">
<title>Node5</title>
<g id="a_Node000005"><a xlink:href="group__ads1115__interface__driver.html#ga555bd88c10dbde5f73a0f57f5bf94ddf" target="_top" xlink:title="interface delay ms">
<polygon fill="white" stroke="#666666" points="280.62,-424 139.38,-424 139.38,-404 280.62,-404 280.62,-424"/>
<text xml:space="preserve" text-anchor="middle" x="210" y="-410.5" font-family="Helvetica,sans-Serif" font-size="10.00">ads1115_interface_delay_ms</text>
</a>
</g>
</g>
<!-- Node1&#45;&gt;Node5 -->
<g id="edge4_Node000001_Node000005" class="edge">
<title>Node1&#45;&gt;Node5</title>
<g id="a_edge4_Node000001_Node000005"><a xlink:title=" ">
<path fill="none" stroke="#63b8ff" d="M53.5,-276.24C62.75,-300.82 89.64,-363.46 133.75,-395 135.56,-396.29 137.45,-397.5 139.4,-398.62"/>
<polygon fill="#63b8ff" stroke="#63b8ff" points="137.69,-401.69 148.22,-402.92 140.76,-395.39 137.69,-401.69"/>
</a>
</g>
</g>
<!-- Node6 -->
<g id="Node000006" class="node">
<title>Node6</title>
<g id="a_Node000006"><a xlink:href="group__ads1115__interface__driver.html#ga7ea441acba93308fa9788338e98dde57" target="_top" xlink:title="interface iic bus deinit">
<polygon fill="white" stroke="#666666" points="264.5,-386 155.5,-386 155.5,-354 264.5,-354 264.5,-386"/>
<text xml:space="preserve" text-anchor="start" x="163.5" y="-372.5" font-family="Helvetica,sans-Serif" font-size="10.00">ads1115_interface_iic</text>
<text xml:space="preserve" text-anchor="middle" x="210" y="-360.5" font-family="Helvetica,sans-Serif" font-size="10.00">_deinit</text>
</a>
</g>
</g>
<!-- Node1&#45;&gt;Node6 -->
<g id="edge5_Node000001_Node000006" class="edge">
<title>Node1&#45;&gt;Node6</title>
<g id="a_edge5_Node000001_Node000006"><a xlink:title=" ">
<path fill="none" stroke="#63b8ff" d="M58.32,-276.48C72.32,-293.22 101.97,-326.03 133.75,-345 137.27,-347.1 140.98,-349.05 144.8,-350.85"/>
<polygon fill="#63b8ff" stroke="#63b8ff" points="143.14,-353.95 153.71,-354.7 145.92,-347.52 143.14,-353.95"/>
</a>
</g>
</g>
<!-- Node7 -->
<g id="Node000007" class="node">
<title>Node7</title>
<g id="a_Node000007"><a xlink:href="group__ads1115__interface__driver.html#ga4aab33b855a7622cdb49980a35868bb5" target="_top" xlink:title="interface iic bus init">
<polygon fill="white" stroke="#666666" points="273.5,-336 146.5,-336 146.5,-316 273.5,-316 273.5,-336"/>
<text xml:space="preserve" text-anchor="middle" x="210" y="-322.5" font-family="Helvetica,sans-Serif" font-size="10.00">ads1115_interface_iic_init</text>
</a>
</g>
</g>
<!-- Node1&#45;&gt;Node7 -->
<g id="edge6_Node000001_Node000007" class="edge">
<title>Node1&#45;&gt;Node7</title>
<g id="a_edge6_Node000001_Node000007"><a xlink:title=" ">
<path fill="none" stroke="#63b8ff" d="M68.37,-276.43C85.05,-285.49 110.46,-298.47 133.75,-307 139.07,-308.95 144.67,-310.77 150.32,-312.45"/>
<polygon fill="#63b8ff" stroke="#63b8ff" points="149.15,-315.76 159.72,-315.1 151.05,-309.02 149.15,-315.76"/>
</a>
</g>
</g>
<!-- Node8 -->
<g id="Node000008" class="node">
<title>Node8</title>
<g id="a_Node000008"><a xlink:href="group__ads1115__interface__driver.html#gab4b2d63034233d42f1f92cd0af9ff9ec" target="_top" xlink:title="interface iic bus read">
<polygon fill="white" stroke="#666666" points="276.5,-298 143.5,-298 143.5,-278 276.5,-278 276.5,-298"/>
<text xml:space="preserve" text-anchor="middle" x="210" y="-284.5" font-family="Helvetica,sans-Serif" font-size="10.00">ads1115_interface_iic_read</text>
</a>
</g>
</g>
<!-- Node1&#45;&gt;Node8 -->
<g id="edge7_Node000001_Node000008" class="edge">
<title>Node1&#45;&gt;Node8</title>
<g id="a_edge7_Node000001_Node000008"><a xlink:title=" ">
<path fill="none" stroke="#63b8ff" d="M98.05,-272.66C108.79,-274.15 120.45,-275.76 132.03,-277.36"/>
<polygon fill="#63b8ff" stroke="#63b8ff" points="131.19,-280.78 141.58,-278.68 132.15,-273.84 131.19,-280.78"/>
</a>
</g>
</g>
<!-- Node9 -->
<g id="Node000009" class="node">
<title>Node9</title>
<g id="a_Node000009"><a xlink:href="group__ads1115__interface__driver.html#gae1836d1aa4cf1ff3edfe541d4cac1879" target="_top" xlink:title="interface iic bus write">
<polygon fill="white" stroke="#666666" points="264.5,-260 155.5,-260 155.5,-228 264.5,-228 264.5,-260"/>
<text xml:space="preserve" text-anchor="start" x="163.5" y="-246.5" font-family="Helvetica,sans-Serif" font-size="10.00">ads1115_interface_iic</text>
<text xml:space="preserve" text-anchor="middle" x="210" y="-234.5" font-family="Helvetica,sans-Serif" font-size="10.00">_write</text>
</a>
</g>
</g>
<!-- Node1&#45;&gt;Node9 -->
<g id="edge8_Node000001_Node000009" class="edge">
<title>Node1&#45;&gt;Node9</title>
<g id="a_edge8_Node000001_Node000009"><a xlink:title=" ">
<path fill="none" stroke="#63b8ff" d="M98.05,-259.34C112.55,-257.33 128.71,-255.1 144.11,-252.97"/>
<polygon fill="#63b8ff" stroke="#63b8ff" points="144.22,-256.49 153.65,-251.65 143.26,-249.56 144.22,-256.49"/>
</a>
</g>
</g>
<!-- Node10 -->
<g id="Node000010" class="node">
<title>Node10</title>
<g id="a_Node000010"><a xlink:href="group__ads1115__base__driver.html#ga0a8c51a182966607715ef1c8b4f00ee5" target="_top" xlink:title="set the iic address pin">
<polygon fill="white" stroke="#666666" points="266,-210 154,-210 154,-190 266,-190 266,-210"/>
<text xml:space="preserve" text-anchor="middle" x="210" y="-196.5" font-family="Helvetica,sans-Serif" font-size="10.00">ads1115_set_addr_pin</text>
</a>
</g>
</g>
<!-- Node1&#45;&gt;Node10 -->
<g id="edge9_Node000001_Node000010" class="edge">
<title>Node1&#45;&gt;Node10</title>
<g id="a_edge9_Node000001_Node000010"><a xlink:title=" ">
<path fill="none" stroke="#63b8ff" d="M65.33,-255.69C81.71,-245.17 108.63,-229.01 133.75,-219 138.66,-217.05 143.82,-215.25 149.06,-213.6"/>
<polygon fill="#63b8ff" stroke="#63b8ff" points="149.77,-217.03 158.38,-210.85 147.8,-210.32 149.77,-217.03"/>
</a>
</g>
</g>
<!-- Node11 -->
<g id="Node000011" class="node">
<title>Node11</title>
<g id="a_Node000011"><a xlink:href="group__ads1115__base__driver.html#gada00fca9688f42d26abed5c6e425fbd0" target="_top" xlink:title="set the adc channel">
<polygon fill="white" stroke="#666666" points="264.5,-172 155.5,-172 155.5,-152 264.5,-152 264.5,-172"/>
<text xml:space="preserve" text-anchor="middle" x="210" y="-158.5" font-family="Helvetica,sans-Serif" font-size="10.00">ads1115_set_channel</text>
</a>
</g>
</g>
<!-- Node1&#45;&gt;Node11 -->
<g id="edge10_Node000001_Node000011" class="edge">
<title>Node1&#45;&gt;Node11</title>
<g id="a_edge10_Node000001_Node000011"><a xlink:title=" ">
<path fill="none" stroke="#63b8ff" d="M57.11,-255.58C70.23,-237.52 99.74,-200.46 133.75,-181 137.19,-179.03 140.83,-177.27 144.58,-175.68"/>
<polygon fill="#63b8ff" stroke="#63b8ff" points="145.79,-178.97 153.95,-172.21 143.35,-172.4 145.79,-178.97"/>
</a>
</g>
</g>
<!-- Node12 -->
<g id="Node000012" class="node">
<title>Node12</title>
<g id="a_Node000012"><a xlink:href="group__ads1115__interrupt__driver.html#ga1e525b51f98b713e8022569140fdfb23" target="_top" xlink:title="enable or disable the interrupt compare">
<polygon fill="white" stroke="#666666" points="266.38,-134 153.62,-134 153.62,-114 266.38,-114 266.38,-134"/>
<text xml:space="preserve" text-anchor="middle" x="210" y="-120.5" font-family="Helvetica,sans-Serif" font-size="10.00">ads1115_set_compare</text>
</a>
</g>
</g>
<!-- Node1&#45;&gt;Node12 -->
<g id="edge11_Node000001_Node000012" class="edge">
<title>Node1&#45;&gt;Node12</title>
<g id="a_edge11_Node000001_Node000012"><a xlink:title=" ">
<path fill="none" stroke="#63b8ff" d="M53.93,-255.53C63.74,-231.61 91.16,-172.75 133.75,-143 136.59,-141.02 139.61,-139.24 142.75,-137.65"/>
<polygon fill="#63b8ff" stroke="#63b8ff" points="143.95,-140.95 151.74,-133.78 141.18,-134.52 143.95,-140.95"/>
</a>
</g>
</g>
<!-- Node13 -->
<g id="Node000013" class="node">
<title>Node13</title>
<g id="a_Node000013"><a xlink:href="group__ads1115__base__driver.html#ga714417d725f2af515d530baec0036206" target="_top" xlink:title="set the adc range">
<polygon fill="white" stroke="#666666" points="259.62,-96 160.38,-96 160.38,-76 259.62,-76 259.62,-96"/>
<text xml:space="preserve" text-anchor="middle" x="210" y="-82.5" font-family="Helvetica,sans-Serif" font-size="10.00">ads1115_set_range</text>
</a>
</g>
</g>
<!-- Node1&#45;&gt;Node13 -->
<g id="edge12_Node000001_Node000013" class="edge">
<title>Node1&#45;&gt;Node13</title>
<g id="a_edge12_Node000001_Node000013"><a xlink:title=" ">
<path fill="none" stroke="#63b8ff" d="M52.09,-255.84C58.87,-227.31 82.08,-145.85 133.75,-105 138.51,-101.24 143.92,-98.21 149.6,-95.78"/>
<polygon fill="#63b8ff" stroke="#63b8ff" points="150.41,-99.21 158.63,-92.53 148.04,-92.63 150.41,-99.21"/>
</a>
</g>
</g>
<!-- Node14 -->
<g id="Node000014" class="node">
<title>Node14</title>
<g id="a_Node000014"><a xlink:href="group__ads1115__base__driver.html#ga3361fff2058d0f1a2e9559a74708d62e" target="_top" xlink:title="set the sample rate">
<polygon fill="white" stroke="#666666" points="255.88,-58 164.12,-58 164.12,-38 255.88,-38 255.88,-58"/>
<text xml:space="preserve" text-anchor="middle" x="210" y="-44.5" font-family="Helvetica,sans-Serif" font-size="10.00">ads1115_set_rate</text>
</a>
</g>
</g>
<!-- Node1&#45;&gt;Node14 -->
<g id="edge13_Node000001_Node000014" class="edge">
<title>Node1&#45;&gt;Node14</title>
<g id="a_edge13_Node000001_Node000014"><a xlink:title=" ">
<path fill="none" stroke="#63b8ff" d="M50.99,-255.91C55.17,-223.21 72.88,-119.28 133.75,-67 139.45,-62.1 146.24,-58.44 153.37,-55.7"/>
<polygon fill="#63b8ff" stroke="#63b8ff" points="154.07,-59.15 162.53,-52.78 151.94,-52.48 154.07,-59.15"/>
</a>
</g>
</g>
<!-- Node15 -->
<g id="Node000015" class="node">
<title>Node15</title>
<g id="a_Node000015"><a xlink:href="group__ads1115__base__driver.html#ga182b523f8e70e7c114c9e0dcc36116f6" target="_top" xlink:title="start the chip reading">
<polygon fill="white" stroke="#666666" points="286.25,-20 133.75,-20 133.75,0 286.25,0 286.25,-20"/>
<text xml:space="preserve" text-anchor="middle" x="210" y="-6.5" font-family="Helvetica,sans-Serif" font-size="10.00">ads1115_start_continuous_read</text>
</a>
</g>
</g>
<!-- Node1&#45;&gt;Node15 -->
<g id="edge14_Node000001_Node000015" class="edge">
<title>Node1&#45;&gt;Node15</title>
<g id="a_edge14_Node000001_Node000015"><a xlink:title=" ">
<path fill="none" stroke="#63b8ff" d="M50.25,-255.62C52.15,-218.73 63.74,-92.79 133.75,-29 134.81,-28.03 135.92,-27.11 137.06,-26.23"/>
<polygon fill="#63b8ff" stroke="#63b8ff" points="138.55,-29.43 145.18,-21.17 134.84,-23.49 138.55,-29.43"/>
</a>
</g>
</g>
</g>
</svg>
