<?xml version="1.0" encoding="UTF-8" standalone="no"?>
<!DOCTYPE svg PUBLIC "-//W3C//DTD SVG 1.1//EN"
 "http://www.w3.org/Graphics/SVG/1.1/DTD/svg11.dtd">
<!-- Generated by graphviz version 13.1.0 (20250701.0955)
 -->
<!-- Title: ads1115_interrupt_init Pages: 1 -->
<svg width="306pt" height="784pt"
 viewBox="0.00 0.00 306.00 784.00" xmlns="http://www.w3.org/2000/svg" xmlns:xlink="http://www.w3.org/1999/xlink">
<g id="graph0" class="graph" transform="scale(1 1) rotate(0) translate(4 780)">
<title>ads1115_interrupt_init</title>
<!-- Node1 -->
<g id="Node000001" class="node">
<title>Node1</title>
<g id="a_Node000001"><a xlink:title="interrupt example init">
<polygon fill="#999999" stroke="#666666" points="109.75,-386 0,-386 0,-366 109.75,-366 109.75,-386"/>
<text xml:space="preserve" text-anchor="middle" x="54.88" y="-372.5" font-family="Helvetica,sans-Serif" font-size="10.00">ads1115_interrupt_init</text>
</a>
</g>
</g>
<!-- Node2 -->
<g id="Node000002" class="node">
<title>Node2</title>
<g id="a_Node000002"><a xlink:href="group__ads1115__interrupt__driver.html#ga4c0ac892b7b5b7260482ddda16f53813" target="_top" xlink:title="convert a adc value to a register raw data">
<polygon fill="white" stroke="#666666" points="273.12,-776 170.88,-776 170.88,-744 273.12,-744 273.12,-776"/>
<text xml:space="preserve" text-anchor="start" x="178.88" y="-762.5" font-family="Helvetica,sans-Serif" font-size="10.00">ads1115_convert_to</text>
<text xml:space="preserve" text-anchor="middle" x="222" y="-750.5" font-family="Helvetica,sans-Serif" font-size="10.00">_register</text>
</a>
</g>
</g>
<!-- Node1&#45;&gt;Node2 -->
<g id="edge1_Node000001_Node000002" class="edge">
<title>Node1&#45;&gt;Node2</title>
<g id="a_edge1_Node000001_Node000002"><a xlink:title=" ">
<path fill="none" stroke="#63b8ff" d="M57.12,-386.36C63.71,-439.55 96.06,-681.41 145.75,-735 149.96,-739.54 155.02,-743.26 160.49,-746.3"/>
<polygon fill="#63b8ff" stroke="#63b8ff" points="158.79,-749.37 169.33,-750.44 161.76,-743.03 158.79,-749.37"/>
</a>
</g>
</g>
<!-- Node3 -->
<g id="Node000003" class="node">
<title>Node3</title>
<g id="a_Node000003"><a xlink:href="group__ads1115__base__driver.html#ga53af60470c9978fcb06cb75ba893c39b" target="_top" xlink:title="close the chip">
<polygon fill="white" stroke="#666666" points="261.88,-726 182.12,-726 182.12,-706 261.88,-706 261.88,-726"/>
<text xml:space="preserve" text-anchor="middle" x="222" y="-712.5" font-family="Helvetica,sans-Serif" font-size="10.00">ads1115_deinit</text>
</a>
</g>
</g>
<!-- Node1&#45;&gt;Node3 -->
<g id="edge2_Node000001_Node000003" class="edge">
<title>Node1&#45;&gt;Node3</title>
<g id="a_edge2_Node000001_Node000003"><a xlink:title=" ">
<path fill="none" stroke="#63b8ff" d="M55.35,-386.43C53.72,-430.99 53.54,-607.12 145.75,-697 152.69,-703.76 161.66,-708.22 170.98,-711.14"/>
<polygon fill="#63b8ff" stroke="#63b8ff" points="169.96,-714.49 180.51,-713.54 171.66,-707.71 169.96,-714.49"/>
</a>
</g>
</g>
<!-- Node4 -->
<g id="Node000004" class="node">
<title>Node4</title>
<g id="a_Node000004"><a xlink:href="group__ads1115__base__driver.html#ga2a3811d8c153b4cf4c4aa9ea5321e928" target="_top" xlink:title="initialize the chip">
<polygon fill="white" stroke="#666666" points="256.62,-688 187.38,-688 187.38,-668 256.62,-668 256.62,-688"/>
<text xml:space="preserve" text-anchor="middle" x="222" y="-674.5" font-family="Helvetica,sans-Serif" font-size="10.00">ads1115_init</text>
</a>
</g>
</g>
<!-- Node1&#45;&gt;Node4 -->
<g id="edge3_Node000001_Node000004" class="edge">
<title>Node1&#45;&gt;Node4</title>
<g id="a_edge3_Node000001_Node000004"><a xlink:title=" ">
<path fill="none" stroke="#63b8ff" d="M55.81,-386.32C56.12,-427.44 62.99,-581.08 145.75,-659 154.06,-666.83 165.12,-671.56 176.19,-674.38"/>
<polygon fill="#63b8ff" stroke="#63b8ff" points="175.19,-677.74 185.69,-676.31 176.58,-670.88 175.19,-677.74"/>
</a>
</g>
</g>
<!-- Node5 -->
<g id="Node000005" class="node">
<title>Node5</title>
<g id="a_Node000005"><a xlink:href="group__ads1115__interface__driver.html#ga7a540a82ef71d79205a93d367091cff8" target="_top" xlink:title="interface print format data">
<polygon fill="white" stroke="#666666" points="284.75,-650 159.25,-650 159.25,-618 284.75,-618 284.75,-650"/>
<text xml:space="preserve" text-anchor="start" x="167.25" y="-636.5" font-family="Helvetica,sans-Serif" font-size="10.00">ads1115_interface_debug</text>
<text xml:space="preserve" text-anchor="middle" x="222" y="-624.5" font-family="Helvetica,sans-Serif" font-size="10.00">_print</text>
</a>
</g>
</g>
<!-- Node1&#45;&gt;Node5 -->
<g id="edge4_Node000001_Node000005" class="edge">
<title>Node1&#45;&gt;Node5</title>
<g id="a_edge4_Node000001_Node000005"><a xlink:title=" ">
<path fill="none" stroke="#63b8ff" d="M56.76,-386.05C60.43,-421.8 77.67,-544.07 145.75,-609 146.96,-610.16 148.23,-611.26 149.55,-612.32"/>
<polygon fill="#63b8ff" stroke="#63b8ff" points="147.32,-615.04 157.58,-617.71 151.23,-609.23 147.32,-615.04"/>
</a>
</g>
</g>
<!-- Node6 -->
<g id="Node000006" class="node">
<title>Node6</title>
<g id="a_Node000006"><a xlink:href="group__ads1115__interface__driver.html#ga555bd88c10dbde5f73a0f57f5bf94ddf" target="_top" xlink:title="interface delay ms">
<polygon fill="white" stroke="#666666" points="292.62,-600 151.38,-600 151.38,-580 292.62,-580 292.62,-600"/>
<text xml:space="preserve" text-anchor="middle" x="222" y="-586.5" font-family="Helvetica,sans-Serif" font-size="10.00">ads1115_interface_delay_ms</text>
</a>
</g>
</g>
<!-- Node1&#45;&gt;Node6 -->
<g id="edge5_Node000001_Node000006" class="edge">
<title>Node1&#45;&gt;Node6</title>
<g id="a_edge5_Node000001_Node000006"><a xlink:title=" ">
<path fill="none" stroke="#63b8ff" d="M57.46,-386.36C63.01,-418.96 84.67,-520.27 145.75,-571 147.05,-572.08 148.39,-573.09 149.79,-574.05"/>
<polygon fill="#63b8ff" stroke="#63b8ff" points="147.8,-576.95 158.23,-578.85 151.27,-570.87 147.8,-576.95"/>
</a>
</g>
</g>
<!-- Node7 -->
<g id="Node000007" class="node">
<title>Node7</title>
<g id="a_Node000007"><a xlink:href="group__ads1115__interface__driver.html#ga7ea441acba93308fa9788338e98dde57" target="_top" xlink:title="interface iic bus deinit">
<polygon fill="white" stroke="#666666" points="276.5,-562 167.5,-562 167.5,-530 276.5,-530 276.5,-562"/>
<text xml:space="preserve" text-anchor="start" x="175.5" y="-548.5" font-family="Helvetica,sans-Serif" font-size="10.00">ads1115_interface_iic</text>
<text xml:space="preserve" text-anchor="middle" x="222" y="-536.5" font-family="Helvetica,sans-Serif" font-size="10.00">_deinit</text>
</a>
</g>
</g>
<!-- Node1&#45;&gt;Node7 -->
<g id="edge6_Node000001_Node000007" class="edge">
<title>Node1&#45;&gt;Node7</title>
<g id="a_edge6_Node000001_Node000007"><a xlink:title=" ">
<path fill="none" stroke="#63b8ff" d="M59.48,-386.49C69.13,-413.03 98.1,-483.38 145.75,-521 149.24,-523.75 153.04,-526.21 157.02,-528.4"/>
<polygon fill="#63b8ff" stroke="#63b8ff" points="155.33,-531.47 165.86,-532.66 158.37,-525.16 155.33,-531.47"/>
</a>
</g>
</g>
<!-- Node8 -->
<g id="Node000008" class="node">
<title>Node8</title>
<g id="a_Node000008"><a xlink:href="group__ads1115__interface__driver.html#ga4aab33b855a7622cdb49980a35868bb5" target="_top" xlink:title="interface iic bus init">
<polygon fill="white" stroke="#666666" points="285.5,-512 158.5,-512 158.5,-492 285.5,-492 285.5,-512"/>
<text xml:space="preserve" text-anchor="middle" x="222" y="-498.5" font-family="Helvetica,sans-Serif" font-size="10.00">ads1115_interface_iic_init</text>
</a>
</g>
</g>
<!-- Node1&#45;&gt;Node8 -->
<g id="edge7_Node000001_Node000008" class="edge">
<title>Node1&#45;&gt;Node8</title>
<g id="a_edge7_Node000001_Node000008"><a xlink:title=" ">
<path fill="none" stroke="#63b8ff" d="M61.54,-386.39C73.86,-407.94 105.25,-457.62 145.75,-483 148.06,-484.45 150.48,-485.79 152.97,-487.02"/>
<polygon fill="#63b8ff" stroke="#63b8ff" points="151.59,-490.24 162.16,-490.96 154.34,-483.8 151.59,-490.24"/>
</a>
</g>
</g>
<!-- Node9 -->
<g id="Node000009" class="node">
<title>Node9</title>
<g id="a_Node000009"><a xlink:href="group__ads1115__interface__driver.html#gab4b2d63034233d42f1f92cd0af9ff9ec" target="_top" xlink:title="interface iic bus read">
<polygon fill="white" stroke="#666666" points="288.5,-474 155.5,-474 155.5,-454 288.5,-454 288.5,-474"/>
<text xml:space="preserve" text-anchor="middle" x="222" y="-460.5" font-family="Helvetica,sans-Serif" font-size="10.00">ads1115_interface_iic_read</text>
</a>
</g>
</g>
<!-- Node1&#45;&gt;Node9 -->
<g id="edge8_Node000001_Node000009" class="edge">
<title>Node1&#45;&gt;Node9</title>
<g id="a_edge8_Node000001_Node000009"><a xlink:title=" ">
<path fill="none" stroke="#63b8ff" d="M66.25,-386.3C82.05,-401.41 113.71,-429.48 145.75,-445 149.49,-446.81 153.41,-448.46 157.43,-449.96"/>
<polygon fill="#63b8ff" stroke="#63b8ff" points="156.18,-453.23 166.78,-453.11 158.42,-446.6 156.18,-453.23"/>
</a>
</g>
</g>
<!-- Node10 -->
<g id="Node000010" class="node">
<title>Node10</title>
<g id="a_Node000010"><a xlink:href="group__ads1115__interface__driver.html#gae1836d1aa4cf1ff3edfe541d4cac1879" target="_top" xlink:title="interface iic bus write">
<polygon fill="white" stroke="#666666" points="276.5,-436 167.5,-436 167.5,-404 276.5,-404 276.5,-436"/>
<text xml:space="preserve" text-anchor="start" x="175.5" y="-422.5" font-family="Helvetica,sans-Serif" font-size="10.00">ads1115_interface_iic</text>
<text xml:space="preserve" text-anchor="middle" x="222" y="-410.5" font-family="Helvetica,sans-Serif" font-size="10.00">_write</text>
</a>
</g>
</g>
<!-- Node1&#45;&gt;Node10 -->
<g id="edge9_Node000001_Node000010" class="edge">
<title>Node1&#45;&gt;Node10</title>
<g id="a_edge9_Node000001_Node000010"><a xlink:title=" ">
<path fill="none" stroke="#63b8ff" d="M95.01,-386.43C113.28,-391.3 135.51,-397.22 156.19,-402.73"/>
<polygon fill="#63b8ff" stroke="#63b8ff" points="155.13,-406.07 165.69,-405.26 156.93,-399.31 155.13,-406.07"/>
</a>
</g>
</g>
<!-- Node11 -->
<g id="Node000011" class="node">
<title>Node11</title>
<g id="a_Node000011"><a xlink:href="group__ads1115__base__driver.html#ga0a8c51a182966607715ef1c8b4f00ee5" target="_top" xlink:title="set the iic address pin">
<polygon fill="white" stroke="#666666" points="278,-386 166,-386 166,-366 278,-366 278,-386"/>
<text xml:space="preserve" text-anchor="middle" x="222" y="-372.5" font-family="Helvetica,sans-Serif" font-size="10.00">ads1115_set_addr_pin</text>
</a>
</g>
</g>
<!-- Node1&#45;&gt;Node11 -->
<g id="edge10_Node000001_Node000011" class="edge">
<title>Node1&#45;&gt;Node11</title>
<g id="a_edge10_Node000001_Node000011"><a xlink:title=" ">
<path fill="none" stroke="#63b8ff" d="M109.94,-376C124.18,-376 139.71,-376 154.53,-376"/>
<polygon fill="#63b8ff" stroke="#63b8ff" points="154.16,-379.5 164.16,-376 154.16,-372.5 154.16,-379.5"/>
</a>
</g>
</g>
<!-- Node12 -->
<g id="Node000012" class="node">
<title>Node12</title>
<g id="a_Node000012"><a xlink:href="group__ads1115__interrupt__driver.html#ga0ab3c63990bb3ecec4e4a1fe13fa4e1c" target="_top" xlink:title="set the alert pin active status">
<polygon fill="white" stroke="#666666" points="278,-348 166,-348 166,-328 278,-328 278,-348"/>
<text xml:space="preserve" text-anchor="middle" x="222" y="-334.5" font-family="Helvetica,sans-Serif" font-size="10.00">ads1115_set_alert_pin</text>
</a>
</g>
</g>
<!-- Node1&#45;&gt;Node12 -->
<g id="edge11_Node000001_Node000012" class="edge">
<title>Node1&#45;&gt;Node12</title>
<g id="a_edge11_Node000001_Node000012"><a xlink:title=" ">
<path fill="none" stroke="#63b8ff" d="M101.43,-365.52C120.93,-361.03 143.89,-355.75 164.45,-351.01"/>
<polygon fill="#63b8ff" stroke="#63b8ff" points="165.16,-354.44 174.12,-348.79 163.59,-347.62 165.16,-354.44"/>
</a>
</g>
</g>
<!-- Node13 -->
<g id="Node000013" class="node">
<title>Node13</title>
<g id="a_Node000013"><a xlink:href="group__ads1115__base__driver.html#gada00fca9688f42d26abed5c6e425fbd0" target="_top" xlink:title="set the adc channel">
<polygon fill="white" stroke="#666666" points="276.5,-310 167.5,-310 167.5,-290 276.5,-290 276.5,-310"/>
<text xml:space="preserve" text-anchor="middle" x="222" y="-296.5" font-family="Helvetica,sans-Serif" font-size="10.00">ads1115_set_channel</text>
</a>
</g>
</g>
<!-- Node1&#45;&gt;Node13 -->
<g id="edge12_Node000001_Node000013" class="edge">
<title>Node1&#45;&gt;Node13</title>
<g id="a_edge12_Node000001_Node000013"><a xlink:title=" ">
<path fill="none" stroke="#63b8ff" d="M69.12,-365.67C86.02,-352.97 116.56,-331.56 145.75,-319 150.26,-317.06 155.01,-315.29 159.84,-313.68"/>
<polygon fill="#63b8ff" stroke="#63b8ff" points="160.5,-317.13 169.03,-310.84 158.44,-310.44 160.5,-317.13"/>
</a>
</g>
</g>
<!-- Node14 -->
<g id="Node000014" class="node">
<title>Node14</title>
<g id="a_Node000014"><a xlink:href="group__ads1115__interrupt__driver.html#ga948ecb6bdaac3830f2deebd0aaf6889e" target="_top" xlink:title="set the interrupt comparator queue">
<polygon fill="white" stroke="#666666" points="284,-272 160,-272 160,-240 284,-240 284,-272"/>
<text xml:space="preserve" text-anchor="start" x="168" y="-258.5" font-family="Helvetica,sans-Serif" font-size="10.00">ads1115_set_comparator</text>
<text xml:space="preserve" text-anchor="middle" x="222" y="-246.5" font-family="Helvetica,sans-Serif" font-size="10.00">_queue</text>
</a>
</g>
</g>
<!-- Node1&#45;&gt;Node14 -->
<g id="edge13_Node000001_Node000014" class="edge">
<title>Node1&#45;&gt;Node14</title>
<g id="a_edge13_Node000001_Node000014"><a xlink:title=" ">
<path fill="none" stroke="#63b8ff" d="M63.02,-365.55C76.81,-346.14 108.98,-304.41 145.75,-281 147.75,-279.73 149.81,-278.52 151.93,-277.36"/>
<polygon fill="#63b8ff" stroke="#63b8ff" points="153.37,-280.55 160.81,-273.01 150.29,-274.27 153.37,-280.55"/>
</a>
</g>
</g>
<!-- Node15 -->
<g id="Node000015" class="node">
<title>Node15</title>
<g id="a_Node000015"><a xlink:href="group__ads1115__interrupt__driver.html#ga1e525b51f98b713e8022569140fdfb23" target="_top" xlink:title="enable or disable the interrupt compare">
<polygon fill="white" stroke="#666666" points="278.38,-222 165.62,-222 165.62,-202 278.38,-202 278.38,-222"/>
<text xml:space="preserve" text-anchor="middle" x="222" y="-208.5" font-family="Helvetica,sans-Serif" font-size="10.00">ads1115_set_compare</text>
</a>
</g>
</g>
<!-- Node1&#45;&gt;Node15 -->
<g id="edge14_Node000001_Node000015" class="edge">
<title>Node1&#45;&gt;Node15</title>
<g id="a_edge14_Node000001_Node000015"><a xlink:title=" ">
<path fill="none" stroke="#63b8ff" d="M59.19,-365.69C68.32,-338.96 96.51,-267.02 145.75,-231 148.59,-228.92 151.64,-227.06 154.82,-225.41"/>
<polygon fill="#63b8ff" stroke="#63b8ff" points="156.21,-228.63 163.96,-221.4 153.4,-222.22 156.21,-228.63"/>
</a>
</g>
</g>
<!-- Node16 -->
<g id="Node000016" class="node">
<title>Node16</title>
<g id="a_Node000016"><a xlink:href="group__ads1115__interrupt__driver.html#ga712b8529abe04b98f884e7218e94a307" target="_top" xlink:title="set the interrupt compare mode">
<polygon fill="white" stroke="#666666" points="293,-184 151,-184 151,-164 293,-164 293,-184"/>
<text xml:space="preserve" text-anchor="middle" x="222" y="-170.5" font-family="Helvetica,sans-Serif" font-size="10.00">ads1115_set_compare_mode</text>
</a>
</g>
</g>
<!-- Node1&#45;&gt;Node16 -->
<g id="edge15_Node000001_Node000016" class="edge">
<title>Node1&#45;&gt;Node16</title>
<g id="a_edge15_Node000001_Node000016"><a xlink:title=" ">
<path fill="none" stroke="#63b8ff" d="M57.76,-365.83C64.07,-334.74 87.44,-240.23 145.75,-193 147.23,-191.8 148.77,-190.68 150.36,-189.63"/>
<polygon fill="#63b8ff" stroke="#63b8ff" points="151.6,-192.95 158.68,-185.06 148.23,-186.81 151.6,-192.95"/>
</a>
</g>
</g>
<!-- Node17 -->
<g id="Node000017" class="node">
<title>Node17</title>
<g id="a_Node000017"><a xlink:href="group__ads1115__interrupt__driver.html#ga4c22e17d86270d8e550d9132e304d2d6" target="_top" xlink:title="set the interrupt compare threshold">
<polygon fill="white" stroke="#666666" points="278.38,-146 165.62,-146 165.62,-114 278.38,-114 278.38,-146"/>
<text xml:space="preserve" text-anchor="start" x="173.62" y="-132.5" font-family="Helvetica,sans-Serif" font-size="10.00">ads1115_set_compare</text>
<text xml:space="preserve" text-anchor="middle" x="222" y="-120.5" font-family="Helvetica,sans-Serif" font-size="10.00">_threshold</text>
</a>
</g>
</g>
<!-- Node1&#45;&gt;Node17 -->
<g id="edge16_Node000001_Node000017" class="edge">
<title>Node1&#45;&gt;Node17</title>
<g id="a_edge16_Node000001_Node000017"><a xlink:title=" ">
<path fill="none" stroke="#63b8ff" d="M56.99,-365.98C61.36,-331.44 80.45,-216.16 145.75,-155 148.65,-152.28 151.86,-149.86 155.26,-147.7"/>
<polygon fill="#63b8ff" stroke="#63b8ff" points="156.81,-150.84 163.95,-143 153.49,-144.68 156.81,-150.84"/>
</a>
</g>
</g>
<!-- Node18 -->
<g id="Node000018" class="node">
<title>Node18</title>
<g id="a_Node000018"><a xlink:href="group__ads1115__base__driver.html#ga714417d725f2af515d530baec0036206" target="_top" xlink:title="set the adc range">
<polygon fill="white" stroke="#666666" points="271.62,-96 172.38,-96 172.38,-76 271.62,-76 271.62,-96"/>
<text xml:space="preserve" text-anchor="middle" x="222" y="-82.5" font-family="Helvetica,sans-Serif" font-size="10.00">ads1115_set_range</text>
</a>
</g>
</g>
<!-- Node1&#45;&gt;Node18 -->
<g id="edge17_Node000001_Node000018" class="edge">
<title>Node1&#45;&gt;Node18</title>
<g id="a_edge17_Node000001_Node000018"><a xlink:title=" ">
<path fill="none" stroke="#63b8ff" d="M55.98,-365.56C56.95,-325.36 66.06,-179.08 145.75,-105 150.31,-100.76 155.69,-97.43 161.42,-94.82"/>
<polygon fill="#63b8ff" stroke="#63b8ff" points="162.48,-98.16 170.63,-91.39 160.04,-91.6 162.48,-98.16"/>
</a>
</g>
</g>
<!-- Node19 -->
<g id="Node000019" class="node">
<title>Node19</title>
<g id="a_Node000019"><a xlink:href="group__ads1115__base__driver.html#ga3361fff2058d0f1a2e9559a74708d62e" target="_top" xlink:title="set the sample rate">
<polygon fill="white" stroke="#666666" points="267.88,-58 176.12,-58 176.12,-38 267.88,-38 267.88,-58"/>
<text xml:space="preserve" text-anchor="middle" x="222" y="-44.5" font-family="Helvetica,sans-Serif" font-size="10.00">ads1115_set_rate</text>
</a>
</g>
</g>
<!-- Node1&#45;&gt;Node19 -->
<g id="edge18_Node000001_Node000019" class="edge">
<title>Node1&#45;&gt;Node19</title>
<g id="a_edge18_Node000001_Node000019"><a xlink:title=" ">
<path fill="none" stroke="#63b8ff" d="M55.49,-365.65C54.45,-322.25 56.5,-153.12 145.75,-67 151.22,-61.72 157.94,-57.84 165.09,-55.01"/>
<polygon fill="#63b8ff" stroke="#63b8ff" points="165.89,-58.43 174.33,-52.03 163.74,-51.77 165.89,-58.43"/>
</a>
</g>
</g>
<!-- Node20 -->
<g id="Node000020" class="node">
<title>Node20</title>
<g id="a_Node000020"><a xlink:href="group__ads1115__base__driver.html#ga182b523f8e70e7c114c9e0dcc36116f6" target="_top" xlink:title="start the chip reading">
<polygon fill="white" stroke="#666666" points="298.25,-20 145.75,-20 145.75,0 298.25,0 298.25,-20"/>
<text xml:space="preserve" text-anchor="middle" x="222" y="-6.5" font-family="Helvetica,sans-Serif" font-size="10.00">ads1115_start_continuous_read</text>
</a>
</g>
</g>
<!-- Node1&#45;&gt;Node20 -->
<g id="edge19_Node000001_Node000020" class="edge">
<title>Node1&#45;&gt;Node20</title>
<g id="a_edge19_Node000001_Node000020"><a xlink:title=" ">
<path fill="none" stroke="#63b8ff" d="M57.15,-365.57C63.73,-313.12 95.65,-78.79 145.75,-29 146.5,-28.25 147.28,-27.53 148.08,-26.84"/>
<polygon fill="#63b8ff" stroke="#63b8ff" points="149.93,-29.82 156.17,-21.26 145.95,-24.05 149.93,-29.82"/>
</a>
</g>
</g>
</g>
</svg>
