<?xml version="1.0" encoding="UTF-8" standalone="no"?>
<!DOCTYPE svg PUBLIC "-//W3C//DTD SVG 1.1//EN"
 "http://www.w3.org/Graphics/SVG/1.1/DTD/svg11.dtd">
<!-- Generated by graphviz version 13.1.0 (20250701.0955)
 -->
<!-- Title: ads1115_shot_init Pages: 1 -->
<svg width="279pt" height="520pt"
 viewBox="0.00 0.00 279.00 520.00" xmlns="http://www.w3.org/2000/svg" xmlns:xlink="http://www.w3.org/1999/xlink">
<g id="graph0" class="graph" transform="scale(1 1) rotate(0) translate(4 516)">
<title>ads1115_shot_init</title>
<!-- Node1 -->
<g id="Node000001" class="node">
<title>Node1</title>
<g id="a_Node000001"><a xlink:title="shot example init">
<polygon fill="#999999" stroke="#666666" points="93.25,-260 0,-260 0,-240 93.25,-240 93.25,-260"/>
<text xml:space="preserve" text-anchor="middle" x="46.62" y="-246.5" font-family="Helvetica,sans-Serif" font-size="10.00">ads1115_shot_init</text>
</a>
</g>
</g>
<!-- Node2 -->
<g id="Node000002" class="node">
<title>Node2</title>
<g id="a_Node000002"><a xlink:href="group__ads1115__base__driver.html#ga53af60470c9978fcb06cb75ba893c39b" target="_top" xlink:title="close the chip">
<polygon fill="white" stroke="#666666" points="239.75,-512 160,-512 160,-492 239.75,-492 239.75,-512"/>
<text xml:space="preserve" text-anchor="middle" x="199.88" y="-498.5" font-family="Helvetica,sans-Serif" font-size="10.00">ads1115_deinit</text>
</a>
</g>
</g>
<!-- Node1&#45;&gt;Node2 -->
<g id="edge1_Node000001_Node000002" class="edge">
<title>Node1&#45;&gt;Node2</title>
<g id="a_edge1_Node000001_Node000002"><a xlink:title=" ">
<path fill="none" stroke="#63b8ff" d="M47.99,-260.16C49.87,-296.27 61.2,-419.59 129.25,-483 134.85,-488.22 141.75,-492.03 149.01,-494.81"/>
<polygon fill="#63b8ff" stroke="#63b8ff" points="147.75,-498.08 158.34,-497.73 149.84,-491.4 147.75,-498.08"/>
</a>
</g>
</g>
<!-- Node3 -->
<g id="Node000003" class="node">
<title>Node3</title>
<g id="a_Node000003"><a xlink:href="group__ads1115__base__driver.html#ga2a3811d8c153b4cf4c4aa9ea5321e928" target="_top" xlink:title="initialize the chip">
<polygon fill="white" stroke="#666666" points="234.5,-474 165.25,-474 165.25,-454 234.5,-454 234.5,-474"/>
<text xml:space="preserve" text-anchor="middle" x="199.88" y="-460.5" font-family="Helvetica,sans-Serif" font-size="10.00">ads1115_init</text>
</a>
</g>
</g>
<!-- Node1&#45;&gt;Node3 -->
<g id="edge2_Node000001_Node000003" class="edge">
<title>Node1&#45;&gt;Node3</title>
<g id="a_edge2_Node000001_Node000003"><a xlink:title=" ">
<path fill="none" stroke="#63b8ff" d="M48.79,-260.29C53.01,-292.68 70.5,-393.43 129.25,-445 136.28,-451.17 145.13,-455.36 154.14,-458.19"/>
<polygon fill="#63b8ff" stroke="#63b8ff" points="153.08,-461.53 163.64,-460.65 154.83,-454.76 153.08,-461.53"/>
</a>
</g>
</g>
<!-- Node4 -->
<g id="Node000004" class="node">
<title>Node4</title>
<g id="a_Node000004"><a xlink:href="group__ads1115__interface__driver.html#ga7a540a82ef71d79205a93d367091cff8" target="_top" xlink:title="interface print format data">
<polygon fill="white" stroke="#666666" points="262.62,-436 137.12,-436 137.12,-404 262.62,-404 262.62,-436"/>
<text xml:space="preserve" text-anchor="start" x="145.12" y="-422.5" font-family="Helvetica,sans-Serif" font-size="10.00">ads1115_interface_debug</text>
<text xml:space="preserve" text-anchor="middle" x="199.88" y="-410.5" font-family="Helvetica,sans-Serif" font-size="10.00">_print</text>
</a>
</g>
</g>
<!-- Node1&#45;&gt;Node4 -->
<g id="edge3_Node000001_Node000004" class="edge">
<title>Node1&#45;&gt;Node4</title>
<g id="a_edge3_Node000001_Node000004"><a xlink:title=" ">
<path fill="none" stroke="#63b8ff" d="M50.67,-260.42C58.88,-286.79 84.01,-356.79 129.25,-395 130.21,-395.81 131.19,-396.59 132.2,-397.35"/>
<polygon fill="#63b8ff" stroke="#63b8ff" points="130.27,-400.27 140.58,-402.71 134.05,-394.37 130.27,-400.27"/>
</a>
</g>
</g>
<!-- Node5 -->
<g id="Node000005" class="node">
<title>Node5</title>
<g id="a_Node000005"><a xlink:href="group__ads1115__interface__driver.html#ga555bd88c10dbde5f73a0f57f5bf94ddf" target="_top" xlink:title="interface delay ms">
<polygon fill="white" stroke="#666666" points="270.5,-386 129.25,-386 129.25,-366 270.5,-366 270.5,-386"/>
<text xml:space="preserve" text-anchor="middle" x="199.88" y="-372.5" font-family="Helvetica,sans-Serif" font-size="10.00">ads1115_interface_delay_ms</text>
</a>
</g>
</g>
<!-- Node1&#45;&gt;Node5 -->
<g id="edge4_Node000001_Node000005" class="edge">
<title>Node1&#45;&gt;Node5</title>
<g id="a_edge4_Node000001_Node000005"><a xlink:title=" ">
<path fill="none" stroke="#63b8ff" d="M52.55,-260.33C63.32,-281.78 91.07,-331.29 129.25,-357 131.24,-358.34 133.32,-359.59 135.47,-360.74"/>
<polygon fill="#63b8ff" stroke="#63b8ff" points="133.99,-363.92 144.54,-364.92 136.92,-357.56 133.99,-363.92"/>
</a>
</g>
</g>
<!-- Node6 -->
<g id="Node000006" class="node">
<title>Node6</title>
<g id="a_Node000006"><a xlink:href="group__ads1115__interface__driver.html#ga7ea441acba93308fa9788338e98dde57" target="_top" xlink:title="interface iic bus deinit">
<polygon fill="white" stroke="#666666" points="254.38,-348 145.38,-348 145.38,-316 254.38,-316 254.38,-348"/>
<text xml:space="preserve" text-anchor="start" x="153.38" y="-334.5" font-family="Helvetica,sans-Serif" font-size="10.00">ads1115_interface_iic</text>
<text xml:space="preserve" text-anchor="middle" x="199.88" y="-322.5" font-family="Helvetica,sans-Serif" font-size="10.00">_deinit</text>
</a>
</g>
</g>
<!-- Node1&#45;&gt;Node6 -->
<g id="edge5_Node000001_Node000006" class="edge">
<title>Node1&#45;&gt;Node6</title>
<g id="a_edge5_Node000001_Node000006"><a xlink:title=" ">
<path fill="none" stroke="#63b8ff" d="M60.23,-260.41C75.72,-272.8 103.15,-293.51 129.25,-307 131.94,-308.39 134.72,-309.74 137.56,-311.03"/>
<polygon fill="#63b8ff" stroke="#63b8ff" points="136.04,-314.19 146.61,-314.92 138.8,-307.76 136.04,-314.19"/>
</a>
</g>
</g>
<!-- Node7 -->
<g id="Node000007" class="node">
<title>Node7</title>
<g id="a_Node000007"><a xlink:href="group__ads1115__interface__driver.html#ga4aab33b855a7622cdb49980a35868bb5" target="_top" xlink:title="interface iic bus init">
<polygon fill="white" stroke="#666666" points="263.38,-298 136.38,-298 136.38,-278 263.38,-278 263.38,-298"/>
<text xml:space="preserve" text-anchor="middle" x="199.88" y="-284.5" font-family="Helvetica,sans-Serif" font-size="10.00">ads1115_interface_iic_init</text>
</a>
</g>
</g>
<!-- Node1&#45;&gt;Node7 -->
<g id="edge6_Node000001_Node000007" class="edge">
<title>Node1&#45;&gt;Node7</title>
<g id="a_edge6_Node000001_Node000007"><a xlink:title=" ">
<path fill="none" stroke="#63b8ff" d="M89.36,-260.48C106.96,-264.91 127.66,-270.11 146.29,-274.79"/>
<polygon fill="#63b8ff" stroke="#63b8ff" points="145.26,-278.14 155.81,-277.18 146.97,-271.35 145.26,-278.14"/>
</a>
</g>
</g>
<!-- Node8 -->
<g id="Node000008" class="node">
<title>Node8</title>
<g id="a_Node000008"><a xlink:href="group__ads1115__interface__driver.html#gab4b2d63034233d42f1f92cd0af9ff9ec" target="_top" xlink:title="interface iic bus read">
<polygon fill="white" stroke="#666666" points="266.38,-260 133.38,-260 133.38,-240 266.38,-240 266.38,-260"/>
<text xml:space="preserve" text-anchor="middle" x="199.88" y="-246.5" font-family="Helvetica,sans-Serif" font-size="10.00">ads1115_interface_iic_read</text>
</a>
</g>
</g>
<!-- Node1&#45;&gt;Node8 -->
<g id="edge7_Node000001_Node000008" class="edge">
<title>Node1&#45;&gt;Node8</title>
<g id="a_edge7_Node000001_Node000008"><a xlink:title=" ">
<path fill="none" stroke="#63b8ff" d="M93.42,-250C102.41,-250 112.08,-250 121.79,-250"/>
<polygon fill="#63b8ff" stroke="#63b8ff" points="121.64,-253.5 131.64,-250 121.64,-246.5 121.64,-253.5"/>
</a>
</g>
</g>
<!-- Node9 -->
<g id="Node000009" class="node">
<title>Node9</title>
<g id="a_Node000009"><a xlink:href="group__ads1115__interface__driver.html#gae1836d1aa4cf1ff3edfe541d4cac1879" target="_top" xlink:title="interface iic bus write">
<polygon fill="white" stroke="#666666" points="254.38,-222 145.38,-222 145.38,-190 254.38,-190 254.38,-222"/>
<text xml:space="preserve" text-anchor="start" x="153.38" y="-208.5" font-family="Helvetica,sans-Serif" font-size="10.00">ads1115_interface_iic</text>
<text xml:space="preserve" text-anchor="middle" x="199.88" y="-196.5" font-family="Helvetica,sans-Serif" font-size="10.00">_write</text>
</a>
</g>
</g>
<!-- Node1&#45;&gt;Node9 -->
<g id="edge8_Node000001_Node000009" class="edge">
<title>Node1&#45;&gt;Node9</title>
<g id="a_edge8_Node000001_Node000009"><a xlink:title=" ">
<path fill="none" stroke="#63b8ff" d="M83.47,-239.57C98.66,-235.15 116.85,-229.86 134.24,-224.8"/>
<polygon fill="#63b8ff" stroke="#63b8ff" points="134.86,-228.27 143.48,-222.11 132.9,-221.55 134.86,-228.27"/>
</a>
</g>
</g>
<!-- Node10 -->
<g id="Node000010" class="node">
<title>Node10</title>
<g id="a_Node000010"><a xlink:href="group__ads1115__base__driver.html#ga0a8c51a182966607715ef1c8b4f00ee5" target="_top" xlink:title="set the iic address pin">
<polygon fill="white" stroke="#666666" points="255.88,-172 143.88,-172 143.88,-152 255.88,-152 255.88,-172"/>
<text xml:space="preserve" text-anchor="middle" x="199.88" y="-158.5" font-family="Helvetica,sans-Serif" font-size="10.00">ads1115_set_addr_pin</text>
</a>
</g>
</g>
<!-- Node1&#45;&gt;Node10 -->
<g id="edge9_Node000001_Node000010" class="edge">
<title>Node1&#45;&gt;Node10</title>
<g id="a_edge9_Node000001_Node000010"><a xlink:title=" ">
<path fill="none" stroke="#63b8ff" d="M56.65,-239.98C70.71,-224.96 99.36,-196.72 129.25,-181 132.47,-179.31 135.85,-177.76 139.31,-176.33"/>
<polygon fill="#63b8ff" stroke="#63b8ff" points="140.3,-179.7 148.47,-172.97 137.88,-173.13 140.3,-179.7"/>
</a>
</g>
</g>
<!-- Node11 -->
<g id="Node000011" class="node">
<title>Node11</title>
<g id="a_Node000011"><a xlink:href="group__ads1115__base__driver.html#gada00fca9688f42d26abed5c6e425fbd0" target="_top" xlink:title="set the adc channel">
<polygon fill="white" stroke="#666666" points="254.38,-134 145.38,-134 145.38,-114 254.38,-114 254.38,-134"/>
<text xml:space="preserve" text-anchor="middle" x="199.88" y="-120.5" font-family="Helvetica,sans-Serif" font-size="10.00">ads1115_set_channel</text>
</a>
</g>
</g>
<!-- Node1&#45;&gt;Node11 -->
<g id="edge10_Node000001_Node000011" class="edge">
<title>Node1&#45;&gt;Node11</title>
<g id="a_edge10_Node000001_Node000011"><a xlink:title=" ">
<path fill="none" stroke="#63b8ff" d="M52.55,-239.67C63.32,-218.22 91.07,-168.71 129.25,-143 131.24,-141.66 133.32,-140.41 135.47,-139.26"/>
<polygon fill="#63b8ff" stroke="#63b8ff" points="136.92,-142.44 144.54,-135.08 133.99,-136.08 136.92,-142.44"/>
</a>
</g>
</g>
<!-- Node12 -->
<g id="Node000012" class="node">
<title>Node12</title>
<g id="a_Node000012"><a xlink:href="group__ads1115__interrupt__driver.html#ga1e525b51f98b713e8022569140fdfb23" target="_top" xlink:title="enable or disable the interrupt compare">
<polygon fill="white" stroke="#666666" points="256.25,-96 143.5,-96 143.5,-76 256.25,-76 256.25,-96"/>
<text xml:space="preserve" text-anchor="middle" x="199.88" y="-82.5" font-family="Helvetica,sans-Serif" font-size="10.00">ads1115_set_compare</text>
</a>
</g>
</g>
<!-- Node1&#45;&gt;Node12 -->
<g id="edge11_Node000001_Node000012" class="edge">
<title>Node1&#45;&gt;Node12</title>
<g id="a_edge11_Node000001_Node000012"><a xlink:title=" ">
<path fill="none" stroke="#63b8ff" d="M50.38,-239.75C58.06,-213.18 82.32,-141.59 129.25,-105 130.78,-103.81 132.38,-102.69 134.03,-101.64"/>
<polygon fill="#63b8ff" stroke="#63b8ff" points="135.46,-104.85 142.67,-97.09 132.19,-98.66 135.46,-104.85"/>
</a>
</g>
</g>
<!-- Node13 -->
<g id="Node000013" class="node">
<title>Node13</title>
<g id="a_Node000013"><a xlink:href="group__ads1115__base__driver.html#ga714417d725f2af515d530baec0036206" target="_top" xlink:title="set the adc range">
<polygon fill="white" stroke="#666666" points="249.5,-58 150.25,-58 150.25,-38 249.5,-38 249.5,-58"/>
<text xml:space="preserve" text-anchor="middle" x="199.88" y="-44.5" font-family="Helvetica,sans-Serif" font-size="10.00">ads1115_set_range</text>
</a>
</g>
</g>
<!-- Node1&#45;&gt;Node13 -->
<g id="edge12_Node000001_Node000013" class="edge">
<title>Node1&#45;&gt;Node13</title>
<g id="a_edge12_Node000001_Node000013"><a xlink:title=" ">
<path fill="none" stroke="#63b8ff" d="M49.07,-239.89C54.03,-209 73.26,-115.01 129.25,-67 132.43,-64.27 135.97,-61.93 139.73,-59.92"/>
<polygon fill="#63b8ff" stroke="#63b8ff" points="140.93,-63.22 148.66,-55.97 138.1,-56.82 140.93,-63.22"/>
</a>
</g>
</g>
<!-- Node14 -->
<g id="Node000014" class="node">
<title>Node14</title>
<g id="a_Node000014"><a xlink:href="group__ads1115__base__driver.html#ga3361fff2058d0f1a2e9559a74708d62e" target="_top" xlink:title="set the sample rate">
<polygon fill="white" stroke="#666666" points="245.75,-20 154,-20 154,0 245.75,0 245.75,-20"/>
<text xml:space="preserve" text-anchor="middle" x="199.88" y="-6.5" font-family="Helvetica,sans-Serif" font-size="10.00">ads1115_set_rate</text>
</a>
</g>
</g>
<!-- Node1&#45;&gt;Node14 -->
<g id="edge13_Node000001_Node000014" class="edge">
<title>Node1&#45;&gt;Node14</title>
<g id="a_edge13_Node000001_Node000014"><a xlink:title=" ">
<path fill="none" stroke="#63b8ff" d="M48.23,-239.63C50.85,-204.45 64.26,-88.54 129.25,-29 133.31,-25.28 138.03,-22.28 143.05,-19.86"/>
<polygon fill="#63b8ff" stroke="#63b8ff" points="144.28,-23.14 152.3,-16.21 141.71,-16.62 144.28,-23.14"/>
</a>
</g>
</g>
</g>
</svg>
